<svg id="Layer_1" data-name="Layer 1" xmlns="http://www.w3.org/2000/svg" viewBox="0 0 372.64 64"><defs><style>.cls-1{fill:#6d6e70;}.cls-2{fill:#e4a624;}</style></defs><g id="Artwork_14" data-name="Artwork 14"><path class="cls-1" d="M234.63,2.72l-2.42,2a6.51,6.51,0,0,0-3.94-1.49c-3.7,0-6.2,3.13-6.2,7s2.53,7,6.2,7a6.86,6.86,0,0,0,4.2-1.65l2.7,1.73a9.93,9.93,0,0,1-6.9,3c-5.77,0-9.79-4.48-9.79-10.11S222.5.16,228.27.16A9.62,9.62,0,0,1,234.63,2.72Z"/><path class="cls-1" d="M237.42,20.16V.42H250V3.47h-9V8.59h7.26v3H241v5.53h9.41v3Z"/><path class="cls-1" d="M0,24.82C0,11,9.81,0,23.9,0S47.8,11,47.8,24.82,38,49.51,23.9,49.51,0,38.58,0,24.82Zm39,0C39,15.28,33,7.44,23.9,7.44S8.76,15.28,8.76,24.82,14.81,42.14,23.9,42.14,39,34.31,39,24.82Z"/><path class="cls-1" d="M52.77,12.58h8.16v4.67A12.44,12.44,0,0,1,71.6,11.92c9.15,0,16.2,8.29,16.2,18.7S80.68,49.51,71.47,49.51A11.9,11.9,0,0,1,61,44.12V64H52.77Zm17.51,29.5c5.86,0,9.61-5.4,9.61-11.46s-3.81-11.39-9.61-11.39c-6,0-9.61,5.4-9.61,11.39S64.09,42.08,70.28,42.08Z"/><path class="cls-1" d="M110.12,20.6v12h-8.26v-12H90v-8h11.86V.32h8.26V12.57h12v8Z"/><path class="cls-1" d="M127.41,12.58h8.29V36.74c0,3.1,1.45,5.34,4.35,5.34,2.37,0,5.53-1.52,9.15-6.46v-23h8.23V48.86h-7.9v-5.8c-3.42,4.22-7.38,6.45-11.59,6.45-6.39,0-10.53-4.34-10.53-11.32Z"/><path class="cls-1" d="M185.1,48.86V24c0-2.37-1.18-4.67-3.69-4.67-1.44,0-4.27.13-9.41,6.58V48.86h-8.23V12.58h8v5.66c4.67-5.2,8.29-6.32,11.85-6.32,4.67,0,7.63,2.17,9.15,6.65,4.74-5.33,8.43-6.65,12.11-6.65,5.93,0,9.75,4.54,9.75,10.73V48.86h-8.23V24c0-2.37-1.19-4.67-3.69-4.67-1.45,0-4.21.46-9.35,6.58V48.86Z"/><path class="cls-2" d="M230.29,25.3l8.55,23.53h-4.37l-2.06-6h-8.16l-2,6h-4.34l8.58-23.53ZM225.4,39.44h5.88l-2.95-8.74Z"/><path class="cls-2" d="M259,28l-2.89,2.45a7.71,7.71,0,0,0-4.69-1.77c-4.4,0-7.39,3.73-7.39,8.39s3,8.35,7.39,8.35a8.14,8.14,0,0,0,5-2l3.22,2.06a11.87,11.87,0,0,1-8.23,3.6c-6.88,0-11.67-5.34-11.67-12S244.52,25,251.4,25A11.46,11.46,0,0,1,259,28Z"/><path class="cls-2" d="M279.68,28l-2.9,2.45a7.71,7.71,0,0,0-4.69-1.77c-4.4,0-7.39,3.73-7.39,8.39s3,8.35,7.39,8.35a8.18,8.18,0,0,0,5-2l3.21,2.06a11.85,11.85,0,0,1-8.23,3.6c-6.87,0-11.66-5.34-11.66-12S265.22,25,272.09,25A11.49,11.49,0,0,1,279.68,28Z"/><path class="cls-2" d="M281.44,37.1c0-6.75,4.79-12.12,11.67-12.12s11.66,5.37,11.66,12.12-4.78,12-11.66,12S281.44,43.81,281.44,37.1Zm19.06,0c0-4.66-3-8.49-7.39-8.49s-7.39,3.83-7.39,8.49,2.95,8.45,7.39,8.45S300.5,41.72,300.5,37.1Z"/><path class="cls-2" d="M322,25.3h4.27V40.79c0,4.92-3.73,8.36-8.64,8.36S309,45.71,309,40.79V25.3h4.28V41c0,2.67,1.64,4.57,4.34,4.57S322,43.84,322,41Z"/><path class="cls-2" d="M331.92,25.3h3.73l11.09,16.46V25.3h4.14V48.83h-3.69L336.1,32.31V48.83h-4.18Z"/><path class="cls-2" d="M354.39,28.93V25.3h18.25v3.63h-7v19.9h-4.27V28.93Z"/></g></svg>